<svg width="24" height="24" viewBox="0 0 24 24" fill="none" xmlns="http://www.w3.org/2000/svg">
<path d="M11.9775 0C11.1212 0 10.2648 0.0823539 9.4085 0.286215C9.33035 0.304822 9.2758 0.375067 9.2758 0.455408V15.2562C9.2758 15.575 9.00563 15.8027 8.73546 15.8027H7.65478C7.42964 15.8027 7.24953 15.6205 7.24953 15.3928V2.4691C7.24953 1.75218 6.51765 1.27385 5.89963 1.63721C2.35939 3.71864 0 7.59485 0 11.9772C0 18.6262 5.35835 24 12.0225 24C18.6867 24 24 18.6262 24 12.0228C24 5.41936 18.5966 0 11.9775 0ZM11.7523 16.9867C11.7523 17.26 11.5272 17.4877 11.257 17.4877H10.1764C9.90619 17.4877 9.68105 17.26 9.68105 16.9867V9.3814C9.68105 9.10816 9.90619 8.88046 10.1764 8.88046H11.257C11.5272 8.88046 11.7523 9.10816 11.7523 9.3814V16.9867ZM14.1839 17.7154C14.1839 17.9886 13.9587 18.2163 13.6886 18.2163H12.6079C12.3377 18.2163 12.1126 17.9886 12.1126 17.7154V8.65275C12.1126 8.37951 12.3377 8.1518 12.6079 8.1518H13.6886C13.9587 8.1518 14.1839 8.37951 14.1839 8.65275V17.7154ZM16.6154 16.3491C16.6154 16.6224 16.3902 16.8501 16.1201 16.8501H15.0394C14.7692 16.8501 14.5441 16.6224 14.5441 16.3491V10.1101C14.5441 9.83681 14.7692 9.60911 15.0394 9.60911H16.1201C16.3902 9.60911 16.6154 9.83681 16.6154 10.1101V16.3491Z" fill="#FF005C"/>
<path d="M11.9775 0C11.1212 0 10.2648 0.0823539 9.4085 0.286215C9.33035 0.304822 9.2758 0.375067 9.2758 0.455408V15.2562C9.2758 15.575 9.00563 15.8027 8.73546 15.8027H7.65478C7.42964 15.8027 7.24953 15.6205 7.24953 15.3928V2.4691C7.24953 1.75218 6.51765 1.27385 5.89963 1.63721C2.35939 3.71864 0 7.59485 0 11.9772C0 18.6262 5.35835 24 12.0225 24C18.6867 24 24 18.6262 24 12.0228C24 5.41936 18.5966 0 11.9775 0ZM11.7523 16.9867C11.7523 17.26 11.5272 17.4877 11.257 17.4877H10.1764C9.90619 17.4877 9.68105 17.26 9.68105 16.9867V9.3814C9.68105 9.10816 9.90619 8.88046 10.1764 8.88046H11.257C11.5272 8.88046 11.7523 9.10816 11.7523 9.3814V16.9867ZM14.1839 17.7154C14.1839 17.9886 13.9587 18.2163 13.6886 18.2163H12.6079C12.3377 18.2163 12.1126 17.9886 12.1126 17.7154V8.65275C12.1126 8.37951 12.3377 8.1518 12.6079 8.1518H13.6886C13.9587 8.1518 14.1839 8.37951 14.1839 8.65275V17.7154ZM16.6154 16.3491C16.6154 16.6224 16.3902 16.8501 16.1201 16.8501H15.0394C14.7692 16.8501 14.5441 16.6224 14.5441 16.3491V10.1101C14.5441 9.83681 14.7692 9.60911 15.0394 9.60911H16.1201C16.3902 9.60911 16.6154 9.83681 16.6154 10.1101V16.3491Z" fill="url(#paint0_linear_4811_2257)" fill-opacity="0.4"/>
<defs>
<linearGradient id="paint0_linear_4811_2257" x1="6.48322" y1="5.21053" x2="10.3866" y2="26.1751" gradientUnits="userSpaceOnUse">
<stop stop-color="#00E0FF"/>
<stop offset="1" stop-color="white" stop-opacity="0"/>
</linearGradient>
</defs>
</svg>
