<svg width="192" height="68" viewBox="0 0 192 68" fill="none" xmlns="http://www.w3.org/2000/svg">
<path fill-rule="evenodd" clip-rule="evenodd" d="M191.725 27.4726C166.036 10.3547 132.525 0 95.866 0C59.2064 0 25.6889 10.3548 0 27.4726C25.5506 18.9944 55.4215 13.7363 95.866 13.7363C136.31 13.7363 166.18 18.9944 191.725 27.4726ZM81.1646 36.3702C79.2785 36.3702 78.3111 37.8928 78.0643 39.7574C77.9253 40.8007 77.5778 43.1406 77.2374 45.4341C76.9051 47.6772 76.5792 49.8757 76.461 50.7712L76.4338 50.9773C76.3028 52.0022 76.1718 53.0248 75.1812 53.4634C74.1235 53.9307 72.8373 53.2117 71.7445 52.2643L54.4181 37.563C53.5258 36.7864 52.3819 36.3607 51.1987 36.3638C48.747 36.3638 46.392 37.8801 46.392 41.5924V64.585C46.3688 64.9637 46.424 65.3424 46.5534 65.6986C46.6828 66.0541 46.8841 66.3801 47.1445 66.6557C47.4049 66.9313 47.7205 67.1502 48.0696 67.2996C48.4179 67.4481 48.7942 67.5248 49.1728 67.5232C49.9301 67.5432 50.6659 67.2708 51.2251 66.7627C51.7851 66.2538 52.127 65.5485 52.1773 64.7951C52.1773 64.7951 53.9796 53.8412 54.1777 52.6182C54.4301 51.197 54.653 50.0818 56.0278 49.6568C57.2716 49.2725 58.4308 49.9923 60.1979 51.5213C61.9641 53.0496 76.5384 66.1988 76.5384 66.1988C77.0026 66.6493 77.5546 67 78.1609 67.2276C78.7665 67.4553 79.4127 67.556 80.059 67.5232C81.4946 67.5232 84.1028 66.9241 84.1028 62.5591V39.6551C84.1084 37.5333 82.7687 36.3702 81.1646 36.3702M158.4 51.6948C158.4 60.6883 172.975 63.6073 185.706 60.8744C187.514 60.4837 188.721 61.0422 189.106 62.5352C189.544 64.196 188.193 65.2689 186.703 65.7786C170.974 71.1868 149.509 66.7436 149.509 52.1868C149.509 41.9215 158.665 35.6385 171.281 35.6385C185.225 35.6385 189.989 43.5823 189.989 48.8284C189.989 52.1445 188.571 53.7518 185.681 53.7518C183.694 53.7462 180.787 53.7278 177.884 53.7102H177.883C174.407 53.6879 170.934 53.6671 169.046 53.6671C166.625 53.6551 165.724 52.2891 165.724 51.0892C165.724 49.5721 166.847 48.4514 168.95 48.3731C169.875 48.3387 170.847 48.3044 171.822 48.2692C174.746 48.1654 177.694 48.0615 179.469 47.9537C182.046 47.8035 182.413 45.951 181.104 44.5897C178.988 42.4136 174.909 41.3224 169.689 41.7362C164.714 42.1372 158.4 44.9013 158.4 51.6948ZM37.9692 60.8744C25.233 63.6073 10.6635 60.6883 10.6635 51.6948C10.6635 44.9013 16.972 42.1372 21.9521 41.7362C27.1678 41.3224 31.2468 42.4136 33.367 44.5897C34.6771 45.951 34.3104 47.8035 31.7389 47.9537C29.9607 48.0615 27.0145 48.1654 24.0915 48.2692C23.1145 48.3036 22.1407 48.3387 21.2132 48.3731C19.1114 48.4514 17.9874 49.5722 17.9874 51.0892C17.9874 52.2891 18.8885 53.6551 21.309 53.6671C23.1992 53.6671 26.6734 53.6879 30.1524 53.7102C33.057 53.7278 35.9633 53.7462 37.9516 53.7518C40.8347 53.7518 42.2591 52.1445 42.2591 48.8284C42.2591 43.5823 37.4883 35.6385 23.5443 35.6385C10.9279 35.6385 1.77222 41.9215 1.77222 52.1868C1.77222 66.7436 23.2383 71.1868 38.9726 65.7786C40.4624 65.2689 41.8141 64.196 41.3755 62.5352C40.9849 61.0422 39.7778 60.4837 37.9692 60.8744M137.702 62.2604C137.401 59.2304 136.836 53.5281 136.598 46.8745C136.598 46.7594 136.637 46.6476 136.709 46.5581C136.781 46.4678 136.882 46.4063 136.995 46.3824L145.286 45.0451C145.363 45.0203 145.443 45.0155 145.522 45.0315C145.601 45.0467 145.674 45.0826 145.735 45.1354C145.796 45.1881 145.842 45.256 145.868 45.3319C145.895 45.4069 145.901 45.4884 145.887 45.5667C145.52 53.3612 144.787 61.186 144.534 63.7279C144.265 66.7556 142.757 67.5297 141.201 67.5297C139.644 67.5297 138.112 66.702 137.842 63.7048C137.809 63.3365 137.761 62.8604 137.705 62.2876L137.703 62.2668L137.702 62.2604ZM141.224 35.6201C140.58 35.5794 139.934 35.6761 139.329 35.9013C138.725 36.1274 138.174 36.4781 137.715 36.9311C137.256 37.384 136.897 37.9288 136.664 38.5295C136.43 39.1303 136.326 39.7734 136.358 40.4164C136.358 40.7584 136.4 41.6938 136.454 42.8633C136.458 42.9353 136.478 43.0056 136.511 43.0695C136.544 43.1342 136.59 43.1909 136.647 43.2356C136.704 43.2796 136.77 43.3123 136.84 43.3299C136.911 43.3467 136.983 43.3498 137.055 43.3363L145.706 41.9343C145.821 41.9159 145.925 41.8584 146.002 41.7721C146.078 41.6858 146.123 41.5748 146.127 41.4606C146.127 41.0524 146.127 40.6393 146.163 40.4405C146.189 39.7918 146.079 39.1431 145.839 38.54C145.598 37.936 145.233 37.3888 144.768 36.9342C144.302 36.4797 143.746 36.1282 143.135 35.9021C142.526 35.6761 141.874 35.5794 141.224 35.6202M121.416 48.3115C124.472 48.2932 127.157 48.2772 128.512 48.2772C131.534 48.2772 133.33 49.6264 133.318 53.1454C133.318 60.0643 126.224 67.9786 111.654 67.9786C98.6055 67.9786 88.1405 62.7389 88.1405 51.9463C88.1405 41.8616 98.6414 35.6201 111.745 35.6201C115.884 35.5658 120.013 36.0571 124.024 37.0828C126.235 37.6652 127.335 38.7436 126.884 40.4228C126.463 42.0054 124.782 42.3113 123.069 42.0709C103.61 39.3196 97.0557 45.7895 97.0557 51.6643C97.0557 57.9122 104.71 61.8569 111.666 61.8569C116.983 61.8569 122.113 60.0643 124.222 57.3306C125.274 55.9638 125.231 54.3685 122.126 54.2127C121.124 54.1608 119.612 54.0864 117.903 54.0034C115.677 53.8947 113.115 53.7709 110.897 53.6551C108.32 53.5233 107.575 52.1445 107.575 51.0772C107.575 49.8485 108.266 48.3611 111.029 48.3611C114.048 48.3547 117.97 48.3315 121.416 48.3115Z" fill="white"/>
</svg>
