<svg xmlns="http://www.w3.org/2000/svg">
  <linearGradient id="secondary-gradient" gradientTransform="rotate(176)">
    <stop stop-color="#9C589C" />
    <stop offset="1" stop-color="#FF005C" />
  </linearGradient>
  <symbol id="close" viewBox="0 0 24 24">
    <path
      d="M18.75 5.25L5.25 18.75"
      stroke="inherit"
      stroke-width="inherit"
      stroke-linecap="round"
      stroke-linejoin="round"
    />
    <path
      d="M18.75 18.75L5.25 5.25"
      stroke="inherit"
      stroke-width="inherit"
      stroke-linecap="round"
      stroke-linejoin="round"
    />
  </symbol>
  <symbol id="volume" viewBox="0 0 24 24" stroke="inherit" stroke-width="inherit" stroke-linecap="round" stroke-linejoin="round">
    <polygon points="11 5 6 9 2 9 2 15 6 15 11 19 11 5"></polygon>
    <path d="M19.07 4.93a10 10 0 0 1 0 14.14M15.54 8.46a5 5 0 0 1 0 7.07"></path>
  </symbol>
  <symbol id="chevron-right" viewBox="0 0 24 24">
    <path d="M9 4.5L16.5 12L9 19.5" stroke="inherit" stroke-width="inherit" stroke-linecap="round" stroke-linejoin="round"/>
  </symbol>
  <symbol id="more-vertical" viewBox="0 0 24 24" stroke="inherit" stroke-width="inherit" stroke-linecap="round" stroke-linejoin="round">
    <circle cx="12" cy="12" r="1"></circle>
    <circle cx="12" cy="5" r="1"></circle>
    <circle cx="12" cy="19" r="1"></circle>
  </symbol>
  <symbol id="check" viewBox="0 0 24 24" stroke="inherit" stroke-width="inherit" stroke-linecap="round" stroke-linejoin="round">
    <polyline points="20 6 9 17 4 12"></polyline>
  </symbol>
  <symbol id="discord" viewBox="0 0 20 20">
    <path d="M16.9308 3.4629C15.6561 2.87799 14.2892 2.44707 12.8599 2.20025C12.8339 2.19549 12.8079 2.20739 12.7945 2.2312C12.6187 2.54388 12.4239 2.9518 12.2876 3.27242C10.7503 3.04228 9.22099 3.04228 7.71527 3.27242C7.57887 2.94467 7.37707 2.54388 7.20048 2.2312C7.18707 2.20819 7.16107 2.19629 7.13504 2.20025C5.70659 2.44628 4.33963 2.87721 3.06411 3.4629C3.05307 3.46766 3.04361 3.4756 3.03732 3.48591C0.444493 7.35954 -0.265792 11.138 0.0826501 14.8695C0.0842267 14.8878 0.0944749 14.9053 0.108665 14.9164C1.81934 16.1726 3.47642 16.9353 5.10273 17.4408C5.12876 17.4488 5.15634 17.4393 5.1729 17.4178C5.55761 16.8925 5.90054 16.3385 6.19456 15.756C6.21192 15.7219 6.19535 15.6814 6.15989 15.6679C5.61594 15.4616 5.098 15.21 4.59978 14.9243C4.56037 14.9013 4.55721 14.8449 4.59347 14.8179C4.69831 14.7394 4.80318 14.6576 4.9033 14.5751C4.92141 14.56 4.94665 14.5568 4.96794 14.5664C8.24107 16.0608 11.7846 16.0608 15.0191 14.5664C15.0404 14.5561 15.0657 14.5592 15.0846 14.5743C15.1847 14.6568 15.2896 14.7394 15.3952 14.8179C15.4314 14.8449 15.4291 14.9013 15.3897 14.9243C14.8914 15.2155 14.3735 15.4616 13.8288 15.6671C13.7933 15.6806 13.7775 15.7219 13.7949 15.756C14.0952 16.3377 14.4381 16.8917 14.8157 17.417C14.8315 17.4393 14.8599 17.4488 14.8859 17.4408C16.5201 16.9353 18.1772 16.1726 19.8879 14.9164C19.9028 14.9053 19.9123 14.8886 19.9139 14.8703C20.3309 10.5562 19.2154 6.80878 16.9568 3.4867C16.9513 3.4756 16.9419 3.46766 16.9308 3.4629ZM6.68335 12.5974C5.69792 12.5974 4.88594 11.6927 4.88594 10.5816C4.88594 9.47056 5.68217 8.56585 6.68335 8.56585C7.69239 8.56585 8.49651 9.4785 8.48073 10.5816C8.48073 11.6927 7.68451 12.5974 6.68335 12.5974ZM13.329 12.5974C12.3435 12.5974 11.5316 11.6927 11.5316 10.5816C11.5316 9.47056 12.3278 8.56585 13.329 8.56585C14.338 8.56585 15.1421 9.4785 15.1264 10.5816C15.1264 11.6927 14.338 12.5974 13.329 12.5974Z" fill="inherit"/>
  </symbol>
  <symbol id="github" viewBox="0 0 20 20">
    <g clip-path="url(#clip0_5496_2628)">
      <path fill-rule="evenodd" clip-rule="evenodd" d="M10.0004 0.416016C7.62639 0.417247 5.33025 1.25806 3.52253 2.78812C1.71482 4.31817 0.513395 6.43769 0.133096 8.76768C-0.247203 11.0977 0.218415 13.4862 1.4467 15.5062C2.67499 17.5261 4.58584 19.0458 6.83758 19.7935C7.33435 19.8857 7.52147 19.5778 7.52147 19.316C7.52147 19.0542 7.51153 18.2952 7.50822 17.4654C4.72631 18.0663 4.13846 16.2914 4.13846 16.2914C3.68475 15.1389 3.02901 14.8359 3.02901 14.8359C2.12157 14.2201 3.0969 14.2317 3.0969 14.2317C4.10204 14.3025 4.63027 15.2574 4.63027 15.2574C5.52115 16.7771 6.97005 16.3375 7.53969 16.0807C7.6291 15.4369 7.88909 14.9989 8.17556 14.7503C5.95333 14.5 3.61851 13.6472 3.61851 9.8372C3.60473 8.84911 3.97349 7.89356 4.64848 7.16825C4.54582 6.91798 4.20304 5.90704 4.74618 4.53388C4.74618 4.53388 5.58573 4.26715 7.49664 5.55305C9.1357 5.10737 10.865 5.10737 12.5041 5.55305C14.4133 4.26715 15.2512 4.53388 15.2512 4.53388C15.796 5.90375 15.4533 6.91469 15.3506 7.16825C16.0277 7.89368 16.3972 8.85089 16.3822 9.84049C16.3822 13.6587 14.0424 14.5 11.8169 14.7454C12.1746 15.0549 12.4942 15.6592 12.4942 16.5878C12.4942 17.9181 12.4826 18.9884 12.4826 19.316C12.4826 19.5811 12.663 19.8906 13.1698 19.7935C15.4218 19.0457 17.3328 17.5258 18.5611 15.5055C19.7893 13.4852 20.2547 11.0963 19.874 8.76606C19.4932 6.43585 18.2912 4.31631 16.4829 2.78652C14.6746 1.25673 12.3779 0.416467 10.0037 0.416016H10.0004Z" fill="inherit"/>
      <path d="M3.78632 14.6925C3.76479 14.7419 3.68531 14.7568 3.62073 14.7222C3.55615 14.6876 3.50813 14.6234 3.53131 14.5724C3.5545 14.5213 3.63232 14.5081 3.6969 14.5427C3.76148 14.5773 3.81116 14.6431 3.78632 14.6925Z" fill="inherit"/>
      <path d="M4.19334 15.1433C4.15905 15.1605 4.11982 15.1652 4.08236 15.1568C4.0449 15.1484 4.01155 15.1273 3.98801 15.0972C3.92343 15.028 3.91018 14.9325 3.95985 14.8897C4.00953 14.8469 4.09896 14.8667 4.16354 14.9358C4.22812 15.005 4.24302 15.1005 4.19334 15.1433Z" fill="inherit"/>
      <path d="M4.58673 15.7138C4.52546 15.7566 4.42113 15.7138 4.36318 15.6282C4.34715 15.6129 4.33441 15.5944 4.3257 15.5741C4.31699 15.5537 4.3125 15.5318 4.3125 15.5097C4.3125 15.4875 4.31699 15.4656 4.3257 15.4453C4.33441 15.4249 4.34715 15.4065 4.36318 15.3911C4.42444 15.35 4.52877 15.3911 4.58673 15.4751C4.64468 15.5591 4.64634 15.671 4.58673 15.7138V15.7138Z" fill="inherit"/>
      <path d="M5.12168 16.2664C5.06704 16.3273 4.95609 16.3109 4.86502 16.2285C4.77394 16.1462 4.75241 16.0342 4.80706 15.975C4.8617 15.9157 4.97265 15.9322 5.06703 16.0128C5.16142 16.0935 5.17964 16.2071 5.12168 16.2664V16.2664Z" fill="inherit"/>
      <path d="M5.87246 16.5893C5.84762 16.6667 5.73502 16.7013 5.62242 16.6684C5.50982 16.6354 5.4353 16.5432 5.45683 16.4642C5.47836 16.3852 5.59262 16.349 5.70687 16.3852C5.82113 16.4214 5.89399 16.5087 5.87246 16.5893Z" fill="inherit"/>
      <path d="M6.69059 16.6469C6.69059 16.7276 6.59787 16.7967 6.47864 16.7983C6.35942 16.8 6.26172 16.7341 6.26172 16.6535C6.26172 16.5728 6.35444 16.5036 6.47367 16.502C6.5929 16.5003 6.69059 16.5646 6.69059 16.6469Z" fill="inherit"/>
      <path d="M7.45068 16.5199C7.46559 16.6006 7.38279 16.6846 7.26357 16.7043C7.14434 16.7241 7.04002 16.6763 7.02512 16.5973C7.01021 16.5183 7.09632 16.4327 7.21223 16.4112C7.32815 16.3898 7.43578 16.4392 7.45068 16.5199Z" fill="inherit"/>
    </g>
    <defs>
      <clipPath id="clip0_5496_2628">
        <rect width="20" height="20" fill="inherit"/>
      </clipPath>
    </defs>
  </symbol>
  <symbol id="instagram" viewBox="0 0 20 20">
    <path d="M10 1.80078C12.6719 1.80078 12.9883 1.8125 14.0391 1.85937C15.0156 1.90234 15.543 2.06641 15.8945 2.20313C16.3594 2.38281 16.6953 2.60156 17.043 2.94922C17.3945 3.30078 17.6094 3.63281 17.7891 4.09766C17.9258 4.44922 18.0898 4.98047 18.1328 5.95313C18.1797 7.00781 18.1914 7.32422 18.1914 9.99219C18.1914 12.6641 18.1797 12.9805 18.1328 14.0313C18.0898 15.0078 17.9258 15.5352 17.7891 15.8867C17.6094 16.3516 17.3906 16.6875 17.043 17.0352C16.6914 17.3867 16.3594 17.6016 15.8945 17.7813C15.543 17.918 15.0117 18.082 14.0391 18.125C12.9844 18.1719 12.668 18.1836 10 18.1836C7.32813 18.1836 7.01172 18.1719 5.96094 18.125C4.98438 18.082 4.45703 17.918 4.10547 17.7813C3.64063 17.6016 3.30469 17.3828 2.95703 17.0352C2.60547 16.6836 2.39063 16.3516 2.21094 15.8867C2.07422 15.5352 1.91016 15.0039 1.86719 14.0313C1.82031 12.9766 1.80859 12.6602 1.80859 9.99219C1.80859 7.32031 1.82031 7.00391 1.86719 5.95313C1.91016 4.97656 2.07422 4.44922 2.21094 4.09766C2.39063 3.63281 2.60938 3.29688 2.95703 2.94922C3.30859 2.59766 3.64063 2.38281 4.10547 2.20313C4.45703 2.06641 4.98828 1.90234 5.96094 1.85937C7.01172 1.8125 7.32813 1.80078 10 1.80078ZM10 0C7.28516 0 6.94531 0.0117187 5.87891 0.0585938C4.81641 0.105469 4.08594 0.277344 3.45313 0.523437C2.79297 0.78125 2.23438 1.12109 1.67969 1.67969C1.12109 2.23438 0.78125 2.79297 0.523438 3.44922C0.277344 4.08594 0.105469 4.8125 0.0585938 5.875C0.0117188 6.94531 0 7.28516 0 10C0 12.7148 0.0117188 13.0547 0.0585938 14.1211C0.105469 15.1836 0.277344 15.9141 0.523438 16.5469C0.78125 17.207 1.12109 17.7656 1.67969 18.3203C2.23438 18.875 2.79297 19.2188 3.44922 19.4727C4.08594 19.7188 4.8125 19.8906 5.875 19.9375C6.94141 19.9844 7.28125 19.9961 9.99609 19.9961C12.7109 19.9961 13.0508 19.9844 14.1172 19.9375C15.1797 19.8906 15.9102 19.7188 16.543 19.4727C17.1992 19.2188 17.7578 18.875 18.3125 18.3203C18.8672 17.7656 19.2109 17.207 19.4648 16.5508C19.7109 15.9141 19.8828 15.1875 19.9297 14.125C19.9766 13.0586 19.9883 12.7188 19.9883 10.0039C19.9883 7.28906 19.9766 6.94922 19.9297 5.88281C19.8828 4.82031 19.7109 4.08984 19.4648 3.45703C19.2188 2.79297 18.8789 2.23438 18.3203 1.67969C17.7656 1.125 17.207 0.78125 16.5508 0.527344C15.9141 0.28125 15.1875 0.109375 14.125 0.0625C13.0547 0.0117188 12.7148 0 10 0Z" fill="inherit"/>
    <path d="M10 4.86328C7.16406 4.86328 4.86328 7.16406 4.86328 10C4.86328 12.8359 7.16406 15.1367 10 15.1367C12.8359 15.1367 15.1367 12.8359 15.1367 10C15.1367 7.16406 12.8359 4.86328 10 4.86328ZM10 13.332C8.16016 13.332 6.66797 11.8398 6.66797 10C6.66797 8.16016 8.16016 6.66797 10 6.66797C11.8398 6.66797 13.332 8.16016 13.332 10C13.332 11.8398 11.8398 13.332 10 13.332Z" fill="inherit"/>
    <path d="M16.5391 4.66016C16.5391 5.32422 16 5.85938 15.3398 5.85938C14.6758 5.85938 14.1406 5.32032 14.1406 4.66016C14.1406 3.99609 14.6797 3.46094 15.3398 3.46094C16 3.46094 16.5391 4 16.5391 4.66016Z" fill="inherit"/>
  </symbol>
  <symbol id="linkedin" viewBox="0 0 20 20">
    <path d="M18.5195 0H1.47656C0.660156 0 0 0.644531 0 1.44141V18.5547C0 19.3516 0.660156 20 1.47656 20H18.5195C19.3359 20 20 19.3516 20 18.5586V1.44141C20 0.644531 19.3359 0 18.5195 0ZM5.93359 17.043H2.96484V7.49609H5.93359V17.043ZM4.44922 6.19531C3.49609 6.19531 2.72656 5.42578 2.72656 4.47656C2.72656 3.52734 3.49609 2.75781 4.44922 2.75781C5.39844 2.75781 6.16797 3.52734 6.16797 4.47656C6.16797 5.42187 5.39844 6.19531 4.44922 6.19531ZM17.043 17.043H14.0781V12.4023C14.0781 11.2969 14.0586 9.87109 12.5352 9.87109C10.9922 9.87109 10.7578 11.0781 10.7578 12.3242V17.043H7.79688V7.49609H10.6406V8.80078H10.6797C11.0742 8.05078 12.043 7.25781 13.4844 7.25781C16.4883 7.25781 17.043 9.23438 17.043 11.8047V17.043V17.043Z" fill="inherit"/>
  </symbol>
  <symbol id="medium" viewBox="0 0 20 20">
    <path d="M11.2812 9.85577C11.2812 12.998 8.75578 15.5453 5.6407 15.5453C2.52561 15.5453 0 12.9975 0 9.85577C0 6.71408 2.52542 4.16602 5.6407 4.16602C8.75598 4.16602 11.2812 6.7135 11.2812 9.85577Z" fill="inherit"/>
    <path d="M17.4688 9.85646C17.4688 12.8142 16.2061 15.2129 14.6485 15.2129C13.0908 15.2129 11.8281 12.8142 11.8281 9.85646C11.8281 6.8987 13.0906 4.5 14.6483 4.5C16.2059 4.5 17.4686 6.89793 17.4686 9.85646" fill="inherit"/>
    <path d="M19.9993 9.85714C19.9993 12.5066 19.5553 14.6557 19.0074 14.6557C18.4595 14.6557 18.0156 12.5071 18.0156 9.85714C18.0156 7.20713 18.4597 5.05859 19.0074 5.05859C19.5551 5.05859 19.9993 7.20694 19.9993 9.85714Z" fill="inherit"/>
  </symbol>
  <symbol id="reddit" viewBox="0 0 20 20">
    <path fill-rule="evenodd" clip-rule="evenodd" d="M20 10C20 15.5228 15.5228 20 10 20C4.47715 20 0 15.5228 0 10C0 4.47715 4.47715 0 10 0C15.5228 0 20 4.47715 20 10ZM15.2047 8.53799C16.0117 8.53799 16.6667 9.19296 16.6667 9.99998C16.6667 10.5965 16.3041 11.1111 15.8246 11.345C15.848 11.4854 15.8597 11.6257 15.8597 11.7778C15.8597 14.0234 13.2515 15.8362 10.0234 15.8362C6.79533 15.8362 4.18714 14.0234 4.18714 11.7778C4.18714 11.6257 4.19884 11.4737 4.22223 11.3333C3.70761 11.0994 3.35673 10.5965 3.35673 9.99998C3.35673 9.19296 4.0117 8.53799 4.81872 8.53799C5.20468 8.53799 5.56726 8.70173 5.82457 8.94735C6.83041 8.21051 8.22223 7.75437 9.77778 7.70758L10.5146 4.2222C10.538 4.15203 10.5731 4.09355 10.6316 4.05846C10.6901 4.02337 10.7602 4.01168 10.8304 4.02337L13.2515 4.53799C13.4152 4.18711 13.7661 3.9532 14.1754 3.9532C14.7485 3.9532 15.2164 4.42103 15.2164 4.99413C15.2164 5.56723 14.7485 6.03507 14.1754 6.03507C13.614 6.03507 13.1579 5.59062 13.1345 5.04092L10.9708 4.58477L10.3041 7.70758C11.8246 7.76606 13.2047 8.2339 14.1988 8.94735C14.4561 8.69004 14.807 8.53799 15.2047 8.53799ZM7.70761 9.99998C7.13451 9.99998 6.66667 10.4678 6.66667 11.0409C6.66667 11.614 7.13451 12.0819 7.70761 12.0819C8.28071 12.0819 8.74854 11.614 8.74854 11.0409C8.74854 10.4678 8.28071 9.99998 7.70761 9.99998ZM10.0117 14.5497C10.4094 14.5497 11.7661 14.5029 12.4795 13.7895C12.5848 13.6842 12.5848 13.5204 12.5029 13.4035C12.3977 13.2982 12.2222 13.2982 12.117 13.4035C11.6608 13.8479 10.7135 14.0117 10.0234 14.0117C9.33334 14.0117 8.37427 13.8479 7.92983 13.4035C7.82457 13.2982 7.64913 13.2982 7.54386 13.4035C7.4386 13.5088 7.4386 13.6842 7.54386 13.7895C8.24562 14.4912 9.61404 14.5497 10.0117 14.5497ZM11.2515 11.0409C11.2515 11.614 11.7193 12.0819 12.2924 12.0819C12.8655 12.0819 13.3333 11.614 13.3333 11.0409C13.3333 10.4678 12.8655 9.99998 12.2924 9.99998C11.7193 9.99998 11.2515 10.4678 11.2515 11.0409Z" fill="inherit"/>
  </symbol>
  <symbol id="telegram" viewBox="0 0 20 20">
    <path fill-rule="evenodd" clip-rule="evenodd" d="M20 10C20 15.5228 15.5228 20 10 20C4.47715 20 0 15.5228 0 10C0 4.47715 4.47715 0 10 0C15.5228 0 20 4.47715 20 10ZM10.3584 7.38244C9.38571 7.787 7.44178 8.62433 4.52658 9.89444C4.05319 10.0827 3.80521 10.2668 3.78264 10.4469C3.74449 10.7512 4.12559 10.8711 4.64456 11.0343C4.71515 11.0565 4.7883 11.0795 4.86328 11.1038C5.37386 11.2698 6.06069 11.464 6.41774 11.4717C6.74162 11.4787 7.10311 11.3452 7.5022 11.0711C10.226 9.2325 11.632 8.30317 11.7203 8.28314C11.7825 8.26901 11.8688 8.25123 11.9273 8.30321C11.9858 8.35518 11.98 8.4536 11.9738 8.48C11.9361 8.64095 10.4401 10.0318 9.66593 10.7515C9.42459 10.9759 9.25339 11.135 9.2184 11.1714C9.14 11.2528 9.06011 11.3298 8.98332 11.4038C8.50897 11.8611 8.15326 12.204 9.00301 12.764C9.41136 13.0331 9.73813 13.2556 10.0641 13.4776C10.4201 13.7201 10.7752 13.9619 11.2347 14.2631C11.3517 14.3398 11.4635 14.4195 11.5724 14.4971C11.9867 14.7925 12.359 15.0578 12.8188 15.0155C13.086 14.9909 13.3621 14.7397 13.5022 13.9903C13.8335 12.2193 14.4847 8.38205 14.6352 6.80081C14.6484 6.66228 14.6318 6.48498 14.6185 6.40715C14.6051 6.32932 14.5773 6.21842 14.4761 6.13633C14.3563 6.03911 14.1714 6.01861 14.0886 6.02007C13.7125 6.0267 13.1355 6.22735 10.3584 7.38244Z" fill="inherit"/>
  </symbol>
  <svg id="twitter" viewBox="0 0 20 20">
    <g clip-path="url(#clip0_5496_2624)">
      <path d="M6.2918 18.1256C13.8371 18.1256 17.9652 11.8729 17.9652 6.45216C17.9652 6.27638 17.9613 6.09669 17.9535 5.92091C18.7566 5.34016 19.4496 4.62082 20 3.79669C19.2521 4.12944 18.458 4.34676 17.6449 4.44122C18.5011 3.92803 19.1421 3.12184 19.4492 2.17208C18.6438 2.64941 17.763 2.98612 16.8445 3.16779C16.2257 2.51024 15.4075 2.07487 14.5164 1.92899C13.6253 1.7831 12.711 1.93482 11.9148 2.36069C11.1186 2.78656 10.4848 3.46287 10.1115 4.28504C9.73825 5.10721 9.64619 6.02946 9.84961 6.90919C8.21874 6.82735 6.62328 6.4037 5.16665 5.66569C3.71002 4.92769 2.42474 3.89181 1.39414 2.62521C0.870333 3.52831 0.710047 4.59698 0.945859 5.61402C1.18167 6.63106 1.79589 7.52015 2.66367 8.1006C2.01219 8.07991 1.37498 7.90451 0.804688 7.58888V7.63966C0.804104 8.5874 1.13175 9.5061 1.73192 10.2396C2.3321 10.9731 3.16777 11.4761 4.09687 11.6631C3.49338 11.8282 2.85999 11.8523 2.2457 11.7334C2.50788 12.5485 3.01798 13.2614 3.70481 13.7726C4.39164 14.2838 5.22093 14.5678 6.07695 14.585C4.62369 15.7265 2.82848 16.3457 0.980469 16.3428C0.652739 16.3423 0.325333 16.3222 0 16.2826C1.87738 17.4871 4.06128 18.1268 6.2918 18.1256Z" fill="inherit"/>
    </g>
    <defs>
      <clipPath id="clip0_5496_2624">
      <rect width="20" height="20" fill="inherit"/>
    </clipPath>
    </defs>
  </svg>
</svg>
