<svg width="80" height="23" viewBox="0 0 80 23" fill="none" xmlns="http://www.w3.org/2000/svg">
<path d="M0 14.4681C0.137543 15.7289 1.37543 17.8379 4.60768 17.8379C7.45022 17.8379 8.82565 15.9581 8.82565 14.2618C8.82565 12.6113 7.72531 11.3275 5.61632 10.869L3.91996 10.5252C3.23225 10.3876 2.7967 9.95209 2.7967 9.35608C2.7967 8.66836 3.46149 8.07235 4.40136 8.07235C5.89141 8.07235 6.37281 9.10392 6.4645 9.74578L8.71103 9.10392C8.52764 8.00357 7.519 5.98628 4.40136 5.98628C2.08606 5.98628 0.298009 7.63679 0.298009 9.58531C0.298009 11.1212 1.32958 12.4049 3.30102 12.8405L4.95153 13.2073C5.84556 13.3907 6.25819 13.8491 6.25819 14.4452C6.25819 15.1329 5.68509 15.7289 4.58475 15.7289C3.16348 15.7289 2.407 14.8349 2.3153 13.8262L0 14.4681Z" fill="white"/>
<path d="M14.0988 17.494V6.33014H11.4626V17.494H14.0988ZM11.05 2.41017C11.05 3.37297 11.8294 4.12946 12.7693 4.12946C13.7321 4.12946 14.5115 3.37297 14.5115 2.41017C14.5115 1.44738 13.7321 0.667969 12.7693 0.667969C11.8294 0.667969 11.05 1.44738 11.05 2.41017Z" fill="white"/>
<path d="M20.1885 11.0524C20.1885 9.58531 20.9908 8.4162 22.5038 8.4162C24.1772 8.4162 24.7962 9.51654 24.7962 10.892V17.494H27.4553V10.4335C27.4553 7.98065 26.1487 6.00921 23.4207 6.00921C22.1829 6.00921 20.8533 6.53645 20.1197 7.82018V6.33014H17.5293V17.494H20.1885V11.0524Z" fill="white"/>
<path d="M35.6441 3.16666C36.1484 3.16666 36.4465 3.23543 36.6069 3.28128V1.01182C36.4235 0.920129 35.8734 0.782587 35.2086 0.782587C32.9162 0.782587 31.3115 2.29556 31.3115 4.79425V6.33014H29.363V8.64544H31.3115V17.494H33.9936V8.64544H36.584V6.33014H33.9936V4.86302C33.9936 3.48759 34.9335 3.16666 35.6441 3.16666Z" fill="white"/>
<path d="M43.2768 15.4538C41.6493 15.4538 40.1592 14.2159 40.1592 11.9006C40.1592 9.58531 41.6493 8.39328 43.2768 8.39328C44.9274 8.39328 46.3945 9.58531 46.3945 11.9006C46.3945 14.2388 44.9274 15.4538 43.2768 15.4538ZM43.2768 5.98628C39.9529 5.98628 37.5001 8.48497 37.5001 11.9006C37.5001 15.3392 39.9529 17.8379 43.2768 17.8379C46.6237 17.8379 49.0766 15.3392 49.0766 11.9006C49.0766 8.48497 46.6237 5.98628 43.2768 5.98628Z" fill="white"/>
<path d="M54.3055 11.0524C54.3055 9.58531 55.1078 8.4162 56.6208 8.4162C58.2942 8.4162 58.9132 9.51654 58.9132 10.892V17.494H61.5723V10.4335C61.5723 7.98065 60.2657 6.00921 57.5378 6.00921C56.2999 6.00921 54.9703 6.53645 54.2367 7.82018V6.33014H51.6463V17.494H54.3055V11.0524Z" fill="white"/>
<path d="M67.4458 17.494V6.33014H64.8096V17.494H67.4458ZM64.397 2.41017C64.397 3.37297 65.1764 4.12946 66.1163 4.12946C67.0791 4.12946 67.8585 3.37297 67.8585 2.41017C67.8585 1.44738 67.0791 0.667969 66.1163 0.667969C65.1764 0.667969 64.397 1.44738 64.397 2.41017Z" fill="white"/>
<path d="M70.1886 14.4681C70.1886 16.2332 71.6328 17.8379 73.971 17.8379C75.782 17.8379 76.8824 16.9209 77.4096 16.0727C77.4096 16.9668 77.5013 17.4252 77.5242 17.494H80C79.9771 17.3794 79.8625 16.7146 79.8625 15.706V10.1584C79.8625 7.9348 78.5558 5.98628 75.1172 5.98628C72.3664 5.98628 70.6242 7.70557 70.4179 9.63116L72.8478 10.1813C72.9624 9.05807 73.7418 8.16404 75.1402 8.16404C76.6073 8.16404 77.2491 8.92053 77.2491 9.8604C77.2491 10.2501 77.0658 10.571 76.4239 10.6627L73.5584 11.0983C71.6557 11.3734 70.1886 12.4737 70.1886 14.4681ZM74.4754 15.7518C73.4209 15.7518 72.8478 15.0641 72.8478 14.3076C72.8478 13.3907 73.5126 12.9322 74.3378 12.7946L77.2491 12.3591V12.8634C77.2491 15.0412 75.9654 15.7518 74.4754 15.7518Z" fill="white"/>
<path fill-rule="evenodd" clip-rule="evenodd" d="M29.6459 19.7834C29.1416 19.7834 28.8436 19.7146 28.6831 19.6688L28.6831 21.9382C28.8665 22.0299 29.4167 22.1675 30.0815 22.1675C32.3133 22.1675 33.8932 20.7334 33.9751 18.3518H33.9671V13.7671H33.9785L33.9785 5.45605L31.2964 5.45605L31.2964 13.7671H31.302V18.3518H31.2839C31.1703 19.5044 30.3085 19.7834 29.6459 19.7834Z" fill="white"/>
</svg>
