<svg width="40" height="40" viewBox="0 0 40 40" fill="none" xmlns="http://www.w3.org/2000/svg">
<path opacity="0.3" fill-rule="evenodd" clip-rule="evenodd" d="M19.6252 0.00344709C19.7499 0.00115216 19.8748 0 20 0C20.1252 0 20.2501 0.00115216 20.3748 0.00344709C21.2376 0.0193286 21.9242 0.73164 21.9083 1.59444C21.8924 2.45724 21.1801 3.1438 20.3173 3.12792C20.2118 3.12598 20.106 3.125 20 3.125C19.894 3.125 19.7882 3.12598 19.6827 3.12792C18.8199 3.1438 18.1076 2.45724 18.0917 1.59444C18.0758 0.73164 18.7624 0.0193286 19.6252 0.00344709ZM31.666 5.63705C32.2648 5.01562 33.2539 4.99724 33.8753 5.59599C34.0548 5.76892 34.2311 5.94517 34.404 6.12465C35.0028 6.74608 34.9844 7.73523 34.3629 8.33398C33.7415 8.93273 32.7524 8.91434 32.1536 8.29292C32.0076 8.14132 31.8587 7.99244 31.7071 7.84638C31.0857 7.24763 31.0673 6.25848 31.666 5.63705ZM8.33398 5.63705C8.93273 6.25848 8.91434 7.24763 8.29292 7.84638C8.14132 7.99244 7.99244 8.14132 7.84638 8.29292C7.24763 8.91435 6.25848 8.93273 5.63705 8.33398C5.01562 7.73523 4.99724 6.74608 5.59599 6.12465C5.76892 5.94517 5.94517 5.76892 6.12465 5.59599C6.74608 4.99724 7.73523 5.01562 8.33398 5.63705ZM1.59444 18.0917C2.45724 18.1076 3.1438 18.8199 3.12792 19.6827C3.12598 19.7882 3.125 19.894 3.125 20C3.125 20.106 3.12598 20.2118 3.12792 20.3173C3.1438 21.1801 2.45724 21.8924 1.59444 21.9083C0.73164 21.9242 0.0193286 21.2376 0.00344709 20.3748C0.00115216 20.2501 0 20.1252 0 20C0 19.8748 0.00115216 19.7499 0.00344709 19.6252C0.0193286 18.7624 0.73164 18.0758 1.59444 18.0917ZM38.4056 18.0917C39.2684 18.0758 39.9807 18.7624 39.9966 19.6252C39.9988 19.7499 40 19.8748 40 20C40 20.1252 39.9988 20.2501 39.9966 20.3748C39.9807 21.2376 39.2684 21.9242 38.4056 21.9083C37.5428 21.8924 36.8562 21.1801 36.8721 20.3173C36.874 20.2118 36.875 20.106 36.875 20C36.875 19.894 36.874 19.7882 36.8721 19.6827C36.8562 18.8199 37.5428 18.1076 38.4056 18.0917ZM5.63705 31.666C6.25848 31.0673 7.24763 31.0857 7.84638 31.7071C7.99244 31.8587 8.14132 32.0076 8.29292 32.1536C8.91435 32.7524 8.93273 33.7415 8.33398 34.3629C7.73523 34.9844 6.74608 35.0028 6.12465 34.404C5.94517 34.2311 5.76892 34.0548 5.59599 33.8753C4.99724 33.2539 5.01562 32.2648 5.63705 31.666ZM34.3629 31.666C34.9844 32.2648 35.0028 33.2539 34.404 33.8753C34.2311 34.0548 34.0548 34.2311 33.8753 34.404C33.2539 35.0028 32.2648 34.9844 31.666 34.3629C31.0673 33.7415 31.0857 32.7524 31.7071 32.1536C31.8587 32.0076 32.0076 31.8587 32.1536 31.7071C32.7524 31.0857 33.7415 31.0673 34.3629 31.666ZM18.0917 38.4056C18.1076 37.5428 18.8199 36.8562 19.6827 36.8721C19.7882 36.874 19.894 36.875 20 36.875C20.106 36.875 20.2118 36.874 20.3173 36.8721C21.1801 36.8562 21.8924 37.5428 21.9083 38.4056C21.9242 39.2684 21.2376 39.9807 20.3748 39.9966C20.2501 39.9988 20.1252 40 20 40C19.8748 40 19.7499 39.9988 19.6252 39.9966C18.7624 39.9807 18.0758 39.2684 18.0917 38.4056Z" fill="white"/>
<path fill-rule="evenodd" clip-rule="evenodd" d="M19.7354 5.4341C19.8234 5.43246 19.9115 5.43164 19.9999 5.43164C20.0882 5.43164 20.1763 5.43246 20.2644 5.4341C21.796 5.46264 23.0148 6.74277 22.9866 8.29334C22.9584 9.84392 21.6939 11.0778 20.1623 11.0492C20.1083 11.0482 20.0541 11.0477 19.9999 11.0477C19.9456 11.0477 19.8914 11.0482 19.8375 11.0492C18.3058 11.0778 17.0413 9.84392 17.0131 8.29334C16.9849 6.74277 18.2037 5.46264 19.7354 5.4341ZM14.1075 9.51258C15.1704 10.6294 15.1378 12.407 14.0346 13.4831C13.9572 13.5585 13.8813 13.6354 13.8067 13.7137C12.7438 14.8305 10.9879 14.8636 9.88469 13.7875C8.78151 12.7115 8.74887 10.9339 9.81179 9.81705C9.93402 9.68863 10.0586 9.56252 10.1854 9.43878C11.2886 8.36274 13.0446 8.39578 14.1075 9.51258ZM25.8922 9.51258C26.9551 8.39579 28.7111 8.36274 29.8143 9.43878C29.9411 9.56252 30.0657 9.68863 30.1879 9.81706C31.2508 10.9339 31.2182 12.7115 30.115 13.7875C29.0118 14.8636 27.2559 14.8305 26.193 13.7137C26.1184 13.6354 26.0425 13.5585 25.9651 13.4831C24.8619 12.407 24.8293 10.6294 25.8922 9.51258ZM31.3194 16.729C32.8511 16.7004 34.1156 17.9343 34.1438 19.4849C34.1454 19.574 34.1462 19.6632 34.1462 19.7526C34.1462 19.842 34.1454 19.9313 34.1438 20.0204C34.1156 21.571 32.8511 22.8048 31.3194 22.7763C29.7877 22.7477 28.5689 21.4676 28.5971 19.917C28.5981 19.8624 28.5986 19.8076 28.5986 19.7526C28.5986 19.6977 28.5981 19.6429 28.5971 19.5882C28.5689 18.0376 29.7877 16.7575 31.3194 16.729ZM8.68032 16.729C10.212 16.7575 11.4308 18.0376 11.4026 19.5882C11.4016 19.6429 11.4011 19.6977 11.4011 19.7526C11.4011 19.8076 11.4016 19.8624 11.4026 19.917C11.4308 21.4676 10.212 22.7477 8.68032 22.7763C7.14866 22.8048 5.88414 21.571 5.85595 20.0204C5.85433 19.9313 5.85352 19.842 5.85352 19.7526C5.85352 19.6632 5.85433 19.574 5.85595 19.4849C5.88414 17.9343 7.14866 16.7004 8.68032 16.729ZM9.88469 25.7177C10.9879 24.6417 12.7438 24.6747 13.8067 25.7915C13.8813 25.8698 13.9572 25.9467 14.0346 26.0222C15.1378 27.0982 15.1704 28.8759 14.1075 29.9927C13.0446 31.1095 11.2886 31.1425 10.1854 30.0665C10.0586 29.9427 9.93402 29.8166 9.81179 29.6882C8.74887 28.5714 8.78151 26.7938 9.88469 25.7177ZM30.115 25.7177C31.2182 26.7938 31.2508 28.5714 30.1879 29.6882C30.0657 29.8166 29.9411 29.9427 29.8143 30.0665C28.7111 31.1425 26.9551 31.1095 25.8922 29.9927C24.8293 28.8759 24.8619 27.0982 25.9651 26.0222C26.0425 25.9467 26.1184 25.8698 26.193 25.7915C27.2559 24.6747 29.0118 24.6417 30.115 25.7177ZM17.0131 31.2119C17.0413 29.6613 18.3058 28.4275 19.8375 28.456C19.8914 28.457 19.9456 28.4575 19.9999 28.4575C20.0541 28.4575 20.1083 28.457 20.1623 28.456C21.6939 28.4275 22.9584 29.6613 22.9866 31.2119C23.0148 32.7625 21.796 34.0426 20.2644 34.0712C20.1763 34.0728 20.0882 34.0736 19.9999 34.0736C19.9115 34.0736 19.8234 34.0728 19.7354 34.0712C18.2037 34.0426 16.9849 32.7625 17.0131 31.2119Z" fill="white"/>
</svg>
